<svg xmlns="http://www.w3.org/2000/svg" version="1.1" xmlns:xlink="http://www.w3.org/1999/xlink" xmlns:svgjs="http://svgjs.dev/svgjs" width="1500" height="1248" viewBox="0 0 1500 1248"><g transform="matrix(1,0,0,1,-0.5931501558578702,-2.01290322580644)"><svg viewBox="0 0 298 248" data-background-color="#faf9f3" preserveAspectRatio="xMidYMid meet" height="1248" width="1500" xmlns="http://www.w3.org/2000/svg" xmlns:xlink="http://www.w3.org/1999/xlink"><g id="tight-bounds" transform="matrix(1,0,0,1,0.11783916429709507,0.4000000000000057)"><svg viewBox="0 0 297.7643216714058 247.2" height="247.2" width="297.7643216714058"><g><svg viewBox="0 0 395.52 328.35547069972904" height="247.2" width="297.7643216714058"><g transform="matrix(1,0,0,1,0,199.8706189573509)"><svg viewBox="0 0 395.52 128.48485174237817" height="128.48485174237817" width="395.52"><g id="textblocktransform"><svg viewBox="0 0 395.52 128.48485174237817" height="128.48485174237817" width="395.52" id="textblock"><g><svg viewBox="0 0 395.52 94.48039550561798" height="94.48039550561798" width="395.52"><g transform="matrix(1,0,0,1,0,0)"><svg width="395.52" viewBox="4.15 -51.25 222.48 53.15" height="94.48039550561798" data-palette-color="#243cfc"><path d="M31.1-36.25Q31.4-36.2 31.55-35.95L31.55-35.95Q31.15-35.45 31-34.43 30.85-33.4 30.85-33.25L30.85-33.25Q30.7-32.4 30.1-32.4L30.1-32.4Q27.9-32.4 21.4-32.8L21.4-32.8Q16-33.1 15.25-33.1L15.25-33.1Q14.25-33.1 13.98-32.9 13.7-32.7 13.5-32.05L13.5-32.05Q13-30.35 10.55-18.3L10.55-18.3Q13.95-18.1 16.7-18.1L16.7-18.1Q23.4-18.1 27.5-19.3L27.5-19.3 27.7-19.1Q27.55-18.8 27.3-17.75 27.05-16.7 27.05-16.15L27.05-16.15Q24.6-16.15 22.25-16.2L22.25-16.2 10.1-16.25Q7.25-1.9 7.25-0.85L7.25-0.85 7.3-0.15Q6.6 0.2 5.1 0.2L5.1 0.2Q4.6 0.2 4.38 0.08 4.15-0.05 4.15-0.55L4.15-0.55Q4.15-0.95 4.45-2.35L4.45-2.35 7.6-16.9Q9.05-23.35 9.93-27.53 10.8-31.7 10.8-32.4L10.8-32.4Q10.8-33.2 9.55-33.2L9.55-33.2 8-33.1 6.65-33.05Q6.05-33.05 6.05-33.35L6.05-33.35Q6.05-33.6 6.23-34.23 6.4-34.85 6.7-35.35L6.7-35.35Q12.55-35 20-35L20-35Q25.65-35 27.68-35.2 29.7-35.4 31.1-36.25L31.1-36.25ZM52.85-14Q53.35-14 53.65-13.53 53.95-13.05 53.95-12.35L53.95-12.35Q53.95-11.45 53.45-10.45L53.45-10.45Q52.05-7.5 49.45-5.03 46.85-2.55 43.82-1.1 40.8 0.35 38.2 0.35L38.2 0.35Q32.9 0.35 32.9-5.8L32.9-5.8Q32.9-10.1 35.25-19.63 37.6-29.15 42.05-44.9L42.05-44.9Q43-48.15 44.12-49.7 45.25-51.25 46.7-51.25L46.7-51.25Q47.75-51.25 48.72-50.53 49.7-49.8 50.35-48.3 51-46.8 51-44.6L51-44.6Q51-41.05 49.32-35.6 47.65-30.15 44.3-24.1 40.95-18.05 36.25-12.9L36.25-12.9Q35.4-8.5 35.4-6.35L35.4-6.35Q35.4-3.95 36.37-2.93 37.35-1.9 39.1-1.9L39.1-1.9Q41.55-1.9 44.32-3.55 47.1-5.2 49.4-8 51.7-10.8 52.85-14L52.85-14ZM43.35-41.75Q39.15-26.65 37-16.7L37-16.7Q40.7-21.35 43.37-26.85 46.05-32.35 47.37-37.15 48.7-41.95 48.7-44.7L48.7-44.7Q48.7-46.25 48.25-47.38 47.8-48.5 46.75-48.5L46.75-48.5Q46.15-48.5 45.32-47.25 44.5-46 43.35-41.75L43.35-41.75ZM71.75-11.95Q72.65-11.8 72.65-10.95L72.65-10.95Q72.65-8.95 70.07-6.28 67.5-3.6 64-1.68 60.5 0.25 58.15 0.25L58.15 0.25Q55.9 0.25 54.25-0.93 52.6-2.1 51.72-3.55 50.85-5 50.85-5.7L50.85-5.7Q51.65-8.55 52.6-13.6L52.6-13.6 53.15-16.4Q53.35-17.4 54.6-18.48 55.85-19.55 57.4-20.28 58.95-21 59.9-21L59.9-21Q60.65-21 61.72-20.53 62.8-20.05 63.62-19.05 64.45-18.05 64.45-16.5L64.45-16.5Q64.45-14.7 63.25-13.1 62.05-11.5 59.7-10.5 57.35-9.5 54.05-9.5L54.05-9.5 53.35-6.15Q53.35-5.7 53.87-4.65 54.4-3.6 55.57-2.75 56.75-1.9 58.55-1.9L58.55-1.9Q60.95-1.9 63.6-3.48 66.25-5.05 68.45-7.4 70.65-9.75 71.75-11.95L71.75-11.95ZM59.5-18.95Q58.9-18.95 57.95-18.45 57-17.95 56.22-17.2 55.45-16.45 55.3-15.8L55.3-15.8Q54.8-13.55 54.4-11.25L54.4-11.25Q58.25-11.4 60.2-12.78 62.15-14.15 62.15-15.9L62.15-15.9Q62.15-17.15 61.25-18.05 60.35-18.95 59.5-18.95L59.5-18.95ZM90.64-11.95Q91.54-11.8 91.54-10.95L91.54-10.95Q91.54-8.95 88.97-6.28 86.39-3.6 82.89-1.68 79.39 0.25 77.04 0.25L77.04 0.25Q74.79 0.25 73.14-0.93 71.49-2.1 70.62-3.55 69.74-5 69.74-5.7L69.74-5.7Q70.54-8.55 71.49-13.6L71.49-13.6 72.04-16.4Q72.24-17.4 73.49-18.48 74.74-19.55 76.29-20.28 77.84-21 78.79-21L78.79-21Q79.54-21 80.62-20.53 81.69-20.05 82.52-19.05 83.34-18.05 83.34-16.5L83.34-16.5Q83.34-14.7 82.14-13.1 80.94-11.5 78.59-10.5 76.24-9.5 72.94-9.5L72.94-9.5 72.24-6.15Q72.24-5.7 72.77-4.65 73.29-3.6 74.47-2.75 75.64-1.9 77.44-1.9L77.44-1.9Q79.84-1.9 82.49-3.48 85.14-5.05 87.34-7.4 89.54-9.75 90.64-11.95L90.64-11.95ZM78.39-18.95Q77.79-18.95 76.84-18.45 75.89-17.95 75.12-17.2 74.34-16.45 74.19-15.8L74.19-15.8Q73.69-13.55 73.29-11.25L73.29-11.25Q77.14-11.4 79.09-12.78 81.04-14.15 81.04-15.9L81.04-15.9Q81.04-17.15 80.14-18.05 79.24-18.95 78.39-18.95L78.39-18.95ZM107.84-8.3Q108.09-7.95 108.09-7.45L108.09-7.45Q108.09-7.05 107.94-6.75 107.79-6.45 107.44-6L107.44-6Q106.14-4.45 103.82-2.93 101.49-1.4 98.94-0.45 96.39 0.5 94.49 0.5L94.49 0.5Q92.34 0.5 90.92-0.83 89.49-2.15 89.49-4.8L89.49-4.8Q89.49-8.15 91.89-17.4L91.89-17.4 86.59-17.2Q86.49-17.25 86.32-17.38 86.14-17.5 86.09-17.6L86.09-17.6Q86.24-17.85 86.64-18.6 87.04-19.35 87.34-19.65L87.34-19.65 92.49-19.6Q94.14-25.7 96.29-32.15L96.29-32.15Q97.19-32.85 98.59-33.68 99.99-34.5 100.29-34.5L100.29-34.5Q100.74-34.3 100.84-33.95L100.84-33.95Q99.94-33.6 99.44-33.02 98.94-32.45 98.44-31.15L98.44-31.15Q96.99-27.45 94.94-19.6L94.94-19.6 107.69-19.55 107.74-18.75Q107.74-18.35 107.59-18.2 107.44-18.05 106.89-18L106.89-18Q106.19-17.95 94.39-17.5L94.39-17.5Q92.09-8.1 92.09-4.95L92.09-4.95Q92.09-3.2 92.94-2.38 93.79-1.55 95.54-1.55L95.54-1.55Q100.64-1.55 107.84-8.3L107.84-8.3ZM133.24-36.25Q133.54-36.2 133.69-35.95L133.69-35.95Q133.29-35.45 133.14-34.43 132.99-33.4 132.99-33.25L132.99-33.25Q132.84-32.4 132.24-32.4L132.24-32.4Q130.04-32.4 123.54-32.8L123.54-32.8Q118.14-33.1 117.39-33.1L117.39-33.1Q116.39-33.1 116.11-32.9 115.84-32.7 115.64-32.05L115.64-32.05Q115.14-30.35 112.69-18.3L112.69-18.3Q116.09-18.1 118.84-18.1L118.84-18.1Q125.54-18.1 129.64-19.3L129.64-19.3 129.84-19.1Q129.69-18.8 129.44-17.75 129.19-16.7 129.19-16.15L129.19-16.15Q126.74-16.15 124.39-16.2L124.39-16.2 112.24-16.25Q109.39-1.9 109.39-0.85L109.39-0.85 109.44-0.15Q108.74 0.2 107.24 0.2L107.24 0.2Q106.74 0.2 106.51 0.08 106.29-0.05 106.29-0.55L106.29-0.55Q106.29-0.95 106.59-2.35L106.59-2.35 109.74-16.9Q111.19-23.35 112.06-27.53 112.94-31.7 112.94-32.4L112.94-32.4Q112.94-33.2 111.69-33.2L111.69-33.2 110.14-33.1 108.79-33.05Q108.19-33.05 108.19-33.35L108.19-33.35Q108.19-33.6 108.36-34.23 108.54-34.85 108.84-35.35L108.84-35.35Q114.69-35 122.14-35L122.14-35Q127.79-35 129.81-35.2 131.84-35.4 133.24-36.25L133.24-36.25ZM159.24-2.35Q159.49-1.4 159.49 1.9L159.49 1.9 158.79 1.75Q158.69 0.8 158.44 0.48 158.19 0.15 157.59-0.05L157.59-0.05Q156.34-0.45 153.29-0.68 150.24-0.9 146.39-0.9L146.39-0.9Q141.44-0.9 137.24-0.5 133.04-0.1 130.44 0.65L130.44 0.65Q130.09 0.65 129.64-0.13 129.19-0.9 129.19-1.45L129.19-1.45Q129.19-1.65 129.29-1.73 129.39-1.8 129.64-1.85L129.64-1.85Q132.04-2.25 133.81-3.33 135.59-4.4 137.49-8.2 139.39-12 140.89-19.6L140.89-19.6Q142.69-28.7 143.69-33.6L143.69-33.6Q143.84-34.25 144.06-34.55 144.29-34.85 144.74-35L144.74-35Q146.04-35.55 148.04-35.88 150.04-36.2 152.14-36.2L152.14-36.2Q152.44-36.15 152.69-35.6 152.94-35.05 153.04-34.48 153.14-33.9 153.04-33.8L153.04-33.8Q152.54-33.95 151.49-34.02 150.44-34.1 149.74-34.1L149.74-34.1Q147.99-34.1 147.21-33.35 146.44-32.6 146.14-31.25L146.14-31.25Q145.39-27.9 144.79-24.8L144.79-24.8Q143.54-18.8 142.89-16.25L142.89-16.25Q141.44-10.4 139.64-7.05 137.84-3.7 135.04-2.2L135.04-2.2Q136.64-2.3 139.09-2.55 141.54-2.8 142.94-2.9L142.94-2.9Q147.04-3.35 149.71-3.58 152.39-3.8 154.59-3.8L154.59-3.8Q156.99-3.8 157.99-3.48 158.99-3.15 159.24-2.35L159.24-2.35ZM192.83-17.65Q193.33-17.5 193.33-16.65L193.33-16.65Q193.33-15.4 192.33-14.08 191.33-12.75 189.61-11.9 187.88-11.05 185.83-11.05L185.83-11.05Q183.08-11.05 180.98-12.55L180.98-12.55Q180.68-11.1 180.23-9.6L180.23-9.6Q180.08-9.05 179.58-7.08 179.08-5.1 178.88-3.55L178.88-3.55Q178.53-2.75 177.48-1.83 176.43-0.9 174.98-0.25 173.53 0.4 172.13 0.4L172.13 0.4Q170.58 0.4 169.13-0.4 167.68-1.2 166.76-2.55 165.83-3.9 165.83-5.55L165.83-5.55Q166.53-7.65 166.98-9.5 167.43-11.35 167.83-13.25L167.83-13.25 168.33-15.75Q168.58-16.9 169.68-18.03 170.78-19.15 172.36-19.88 173.93-20.6 175.53-20.6L175.53-20.6Q176.13-20.6 177.23-20.4L177.23-20.4Q177.38-21.55 177.76-22 178.13-22.45 178.98-22.45L178.98-22.45Q179.48-22.45 180.13-22.3L180.13-22.3Q179.88-20.9 179.88-19.9L179.88-19.9Q179.88-17 181.63-15 183.38-13 186.38-13L186.38-13Q188.63-13 190.26-14.2 191.88-15.4 192.83-17.65L192.83-17.65ZM176.68-4.4Q177.08-6.4 177.83-8.95L177.83-8.95Q178.83-12.3 179.13-14.35L179.13-14.35Q178.03-15.75 177.63-17.75L177.63-17.75Q177.63-17.95 177.56-18.07 177.48-18.2 177.23-18.25L177.23-18.25Q176.48-18.55 175.53-18.55L175.53-18.55Q173.68-18.55 172.33-17.55 170.98-16.55 170.63-15.15L170.63-15.15Q170.48-14.55 169.53-10.45L169.53-10.45Q169.08-8.05 168.43-5.7L168.43-5.7Q168.43-3.85 169.68-2.83 170.93-1.8 172.33-1.8L172.33-1.8Q173.53-1.8 174.91-2.65 176.28-3.5 176.68-4.4L176.68-4.4ZM226.28-19.25Q226.63-19.1 226.63-18.4L226.63-18.4Q226.63-16.3 224.28-14.93 221.93-13.55 218.83-13.55L218.83-13.55Q215.38-13.55 212.98-15.5L212.98-15.5Q213.63-13.65 213.63-11.2L213.63-11.2Q213.63-8.05 212.53-5.45 211.43-2.85 209.53-1.38 207.63 0.1 205.33 0.1L205.33 0.1Q203.18 0.1 201.96-1.05 200.73-2.2 200.13-3.7L200.13-3.7Q198.98-1.65 197.31-0.65 195.63 0.35 194.08 0.35L194.08 0.35Q192.43 0.35 191.21-0.65 189.98-1.65 189.36-2.85 188.73-4.05 188.73-4.6L188.73-4.6Q189.23-7.35 190.33-11.4 191.43-15.45 192.28-18.2L192.28-18.2Q192.68-19.4 193.18-20.08 193.68-20.75 194.73-20.75L194.73-20.75Q195.48-20.75 195.73-20.15L195.73-20.15Q194.43-17.7 193.08-12.93 191.73-8.15 191.28-4.9L191.28-4.9Q192.03-1.8 194.33-1.8L194.33-1.8Q195.93-1.8 197.56-3.28 199.18-4.75 200.08-8L200.08-8Q200.48-9.6 201.11-12.5 201.73-15.4 202.13-17.55L202.13-17.55Q203.38-17.55 203.86-17.2 204.33-16.85 204.33-16L204.33-16Q204.33-15.05 203.48-11.95L203.48-11.95Q202.73-9.15 202.58-8.3L202.58-8.3Q202.13-6.05 202.13-4.6L202.13-4.6Q202.38-3.75 203.28-2.75 204.18-1.75 205.58-1.75L205.58-1.75Q206.93-1.75 208.26-2.83 209.58-3.9 210.46-6.05 211.33-8.2 211.33-11.15L211.33-11.15Q211.33-13.5 210.86-15.03 210.38-16.55 209.58-18.1L209.58-18.1Q209.13-19 209.08-19.15L209.08-19.15Q209.28-19.65 209.76-20.15 210.23-20.65 210.48-20.65L210.48-20.65Q210.68-20.65 211.03-20.18 211.38-19.7 211.48-19.6L211.48-19.6Q212.78-17.8 214.36-16.57 215.93-15.35 218.63-15.35L218.63-15.35Q220.83-15.35 222.93-16.35 225.03-17.35 226.28-19.25L226.28-19.25Z" opacity="1" transform="matrix(1,0,0,1,0,0)" fill="#243cfc" class="wordmark-text-0" data-fill-palette-color="primary" id="text-0"></path></svg></g></svg></g><g transform="matrix(1,0,0,1,134.4768,116.78494935500225)"><svg viewBox="0 0 126.56639999999999 11.699902387375923" height="11.699902387375923" width="126.56639999999999"><g transform="matrix(1,0,0,1,0,0)"><svg width="126.56639999999999" viewBox="1.45 -36.83 491.08 45.410000000000004" height="11.699902387375923" data-palette-color="#243cfc"><path d="M23.88-32.52L22.7-30.23Q22.48-29.85 22.23-29.66 21.98-29.48 21.58-29.48L21.58-29.48Q21.15-29.48 20.59-29.9 20.03-30.33 19.16-30.84 18.3-31.35 17.09-31.78 15.88-32.2 14.15-32.2L14.15-32.2Q12.53-32.2 11.28-31.76 10.03-31.33 9.19-30.58 8.35-29.83 7.93-28.81 7.5-27.8 7.5-26.63L7.5-26.63Q7.5-25.13 8.24-24.14 8.97-23.15 10.19-22.45 11.4-21.75 12.94-21.24 14.48-20.73 16.09-20.18 17.7-19.63 19.24-18.94 20.78-18.25 21.99-17.2 23.2-16.15 23.94-14.63 24.68-13.1 24.68-10.88L24.68-10.88Q24.68-8.53 23.88-6.46 23.08-4.4 21.54-2.88 20-1.35 17.76-0.48 15.53 0.4 12.68 0.4L12.68 0.4Q9.2 0.4 6.34-0.86 3.48-2.13 1.45-4.28L1.45-4.28 2.85-6.58Q3.05-6.85 3.34-7.04 3.63-7.23 3.98-7.23L3.98-7.23Q4.5-7.23 5.18-6.66 5.85-6.1 6.86-5.43 7.88-4.75 9.31-4.19 10.75-3.63 12.83-3.63L12.83-3.63Q14.55-3.63 15.9-4.1 17.25-4.58 18.19-5.44 19.13-6.3 19.63-7.5 20.13-8.7 20.13-10.18L20.13-10.18Q20.13-11.8 19.39-12.84 18.65-13.88 17.45-14.58 16.25-15.28 14.71-15.76 13.18-16.25 11.56-16.76 9.95-17.28 8.41-17.95 6.88-18.63 5.68-19.7 4.48-20.78 3.74-22.39 3-24 3-26.38L3-26.38Q3-28.28 3.74-30.05 4.48-31.83 5.88-33.2 7.28-34.58 9.34-35.4 11.4-36.23 14.08-36.23L14.08-36.23Q17.07-36.23 19.55-35.27 22.03-34.33 23.88-32.52L23.88-32.52ZM34.6 8.58L30.15 8.58 30.15-25.33 32.8-25.33Q33.75-25.33 34-24.4L34-24.4 34.37-21.4Q36-23.38 38.09-24.58 40.17-25.78 42.9-25.78L42.9-25.78Q45.07-25.78 46.85-24.94 48.62-24.1 49.87-22.46 51.12-20.83 51.8-18.4 52.47-15.98 52.47-12.83L52.47-12.83Q52.47-10.03 51.72-7.61 50.97-5.2 49.57-3.44 48.17-1.68 46.14-0.66 44.1 0.35 41.55 0.35L41.55 0.35Q39.2 0.35 37.53-0.43 35.87-1.2 34.6-2.63L34.6-2.63 34.6 8.58ZM41.42-22.18L41.42-22.18Q39.25-22.18 37.61-21.18 35.97-20.18 34.6-18.35L34.6-18.35 34.6-6.1Q35.82-4.45 37.28-3.78 38.75-3.1 40.55-3.1L40.55-3.1Q44.07-3.1 45.97-5.63 47.87-8.15 47.87-12.83L47.87-12.83Q47.87-15.3 47.44-17.07 47-18.85 46.17-19.99 45.35-21.13 44.15-21.65 42.95-22.18 41.42-22.18ZM67.77-25.73L67.77-25.73Q70.05-25.73 71.97-24.96 73.89-24.2 75.3-22.76 76.69-21.33 77.48-19.21 78.27-17.1 78.27-14.4L78.27-14.4Q78.27-13.35 78.05-13 77.82-12.65 77.19-12.65L77.19-12.65 60.34-12.65Q60.39-10.25 60.99-8.47 61.59-6.7 62.64-5.51 63.7-4.33 65.14-3.74 66.59-3.15 68.39-3.15L68.39-3.15Q70.07-3.15 71.28-3.54 72.5-3.93 73.37-4.38 74.25-4.83 74.83-5.21 75.42-5.6 75.84-5.6L75.84-5.6Q76.39-5.6 76.69-5.18L76.69-5.18 77.94-3.55Q77.12-2.55 75.97-1.81 74.82-1.07 73.51-0.6 72.19-0.13 70.8 0.11 69.39 0.35 68.02 0.35L68.02 0.35Q65.39 0.35 63.18-0.54 60.97-1.43 59.36-3.14 57.74-4.85 56.84-7.38 55.95-9.9 55.95-13.18L55.95-13.18Q55.95-15.83 56.76-18.13 57.57-20.43 59.09-22.11 60.62-23.8 62.82-24.76 65.02-25.73 67.77-25.73ZM67.87-22.45L67.87-22.45Q64.64-22.45 62.8-20.59 60.95-18.73 60.49-15.43L60.49-15.43 74.27-15.43Q74.27-16.98 73.84-18.26 73.42-19.55 72.59-20.49 71.77-21.43 70.58-21.94 69.39-22.45 67.87-22.45ZM93.97-25.73L93.97-25.73Q96.24-25.73 98.17-24.96 100.09-24.2 101.49-22.76 102.89-21.33 103.68-19.21 104.47-17.1 104.47-14.4L104.47-14.4Q104.47-13.35 104.24-13 104.02-12.65 103.39-12.65L103.39-12.65 86.54-12.65Q86.59-10.25 87.19-8.47 87.79-6.7 88.84-5.51 89.89-4.33 91.34-3.74 92.79-3.15 94.59-3.15L94.59-3.15Q96.27-3.15 97.48-3.54 98.69-3.93 99.57-4.38 100.44-4.83 101.03-5.21 101.62-5.6 102.04-5.6L102.04-5.6Q102.59-5.6 102.89-5.18L102.89-5.18 104.14-3.55Q103.32-2.55 102.17-1.81 101.02-1.07 99.71-0.6 98.39-0.13 96.99 0.11 95.59 0.35 94.22 0.35L94.22 0.35Q91.59 0.35 89.38-0.54 87.17-1.43 85.56-3.14 83.94-4.85 83.04-7.38 82.14-9.9 82.14-13.18L82.14-13.18Q82.14-15.83 82.95-18.13 83.77-20.43 85.29-22.11 86.82-23.8 89.02-24.76 91.22-25.73 93.97-25.73ZM94.07-22.45L94.07-22.45Q90.84-22.45 88.99-20.59 87.14-18.73 86.69-15.43L86.69-15.43 100.47-15.43Q100.47-16.98 100.04-18.26 99.62-19.55 98.79-20.49 97.97-21.43 96.78-21.94 95.59-22.45 94.07-22.45ZM130.62 0L127.97 0Q127.02 0 126.77-0.93L126.77-0.93 126.37-4Q124.74-2.02 122.65-0.84 120.57 0.35 117.87 0.35L117.87 0.35Q115.69 0.35 113.92-0.49 112.14-1.33 110.89-2.95 109.64-4.58 108.97-7 108.29-9.43 108.29-12.58L108.29-12.58Q108.29-15.38 109.04-17.79 109.79-20.2 111.2-21.98 112.62-23.75 114.64-24.76 116.67-25.78 119.24-25.78L119.24-25.78Q121.57-25.78 123.22-24.99 124.87-24.2 126.17-22.78L126.17-22.78 126.17-36.83 130.62-36.83 130.62 0ZM119.34-3.25L119.34-3.25Q121.52-3.25 123.15-4.25 124.79-5.25 126.17-7.08L126.17-7.08 126.17-19.33Q124.94-20.98 123.48-21.64 122.02-22.3 120.24-22.3L120.24-22.3Q116.69-22.3 114.79-19.78 112.89-17.25 112.89-12.58L112.89-12.58Q112.89-10.1 113.32-8.34 113.74-6.58 114.57-5.44 115.39-4.3 116.59-3.78 117.79-3.25 119.34-3.25ZM166.06-12.95L166.06-12.95Q166.41-12.35 166.67-11.69 166.94-11.03 167.19-10.35L167.19-10.35Q167.44-11.05 167.71-11.69 167.99-12.33 168.34-12.98L168.34-12.98 180.46-35Q180.79-35.58 181.14-35.7 181.49-35.83 182.14-35.83L182.14-35.83 185.71-35.83 185.71 0 181.46 0 181.46-26.33Q181.46-26.85 181.49-27.45 181.51-28.05 181.56-28.68L181.56-28.68 169.29-6.28Q168.66-5.15 167.54-5.15L167.54-5.15 166.84-5.15Q165.71-5.15 165.09-6.28L165.09-6.28 152.53-28.75Q152.61-28.1 152.65-27.48 152.69-26.85 152.69-26.33L152.69-26.33 152.69 0 148.44 0 148.44-35.83 152.01-35.83Q152.66-35.83 153.01-35.7 153.36-35.58 153.69-35L153.69-35 166.06-12.95ZM203.76-25.73L203.76-25.73Q206.03-25.73 207.96-24.96 209.88-24.2 211.28-22.76 212.68-21.33 213.47-19.21 214.26-17.1 214.26-14.4L214.26-14.4Q214.26-13.35 214.03-13 213.81-12.65 213.18-12.65L213.18-12.65 196.33-12.65Q196.38-10.25 196.98-8.47 197.58-6.7 198.63-5.51 199.68-4.33 201.13-3.74 202.58-3.15 204.38-3.15L204.38-3.15Q206.06-3.15 207.27-3.54 208.48-3.93 209.36-4.38 210.23-4.83 210.82-5.21 211.41-5.6 211.83-5.6L211.83-5.6Q212.38-5.6 212.68-5.18L212.68-5.18 213.93-3.55Q213.11-2.55 211.96-1.81 210.81-1.07 209.5-0.6 208.18-0.13 206.78 0.11 205.38 0.35 204.01 0.35L204.01 0.35Q201.38 0.35 199.17-0.54 196.96-1.43 195.34-3.14 193.73-4.85 192.83-7.38 191.93-9.9 191.93-13.18L191.93-13.18Q191.93-15.83 192.75-18.13 193.56-20.43 195.08-22.11 196.61-23.8 198.81-24.76 201.01-25.73 203.76-25.73ZM203.86-22.45L203.86-22.45Q200.63-22.45 198.78-20.59 196.93-18.73 196.48-15.43L196.48-15.43 210.26-15.43Q210.26-16.98 209.83-18.26 209.41-19.55 208.58-20.49 207.76-21.43 206.57-21.94 205.38-22.45 203.86-22.45ZM229.96-25.73L229.96-25.73Q232.23-25.73 234.16-24.96 236.08-24.2 237.48-22.76 238.88-21.33 239.67-19.21 240.46-17.1 240.46-14.4L240.46-14.4Q240.46-13.35 240.23-13 240.01-12.65 239.38-12.65L239.38-12.65 222.53-12.65Q222.58-10.25 223.18-8.47 223.78-6.7 224.83-5.51 225.88-4.33 227.33-3.74 228.78-3.15 230.58-3.15L230.58-3.15Q232.26-3.15 233.47-3.54 234.68-3.93 235.56-4.38 236.43-4.83 237.02-5.21 237.61-5.6 238.03-5.6L238.03-5.6Q238.58-5.6 238.88-5.18L238.88-5.18 240.13-3.55Q239.31-2.55 238.16-1.81 237.01-1.07 235.69-0.6 234.38-0.13 232.98 0.11 231.58 0.35 230.21 0.35L230.21 0.35Q227.58 0.35 225.37-0.54 223.16-1.43 221.54-3.14 219.93-4.85 219.03-7.38 218.13-9.9 218.13-13.18L218.13-13.18Q218.13-15.83 218.94-18.13 219.76-20.43 221.28-22.11 222.81-23.8 225.01-24.76 227.21-25.73 229.96-25.73ZM230.06-22.45L230.06-22.45Q226.83-22.45 224.98-20.59 223.13-18.73 222.68-15.43L222.68-15.43 236.46-15.43Q236.46-16.98 236.03-18.26 235.61-19.55 234.78-20.49 233.96-21.43 232.77-21.94 231.58-22.45 230.06-22.45ZM253.8 0.4L253.8 0.4Q250.8 0.4 249.19-1.28 247.58-2.95 247.58-6.1L247.58-6.1 247.58-21.6 244.53-21.6Q244.13-21.6 243.85-21.84 243.58-22.08 243.58-22.58L243.58-22.58 243.58-24.35 247.73-24.88 248.75-32.7Q248.8-33.08 249.08-33.31 249.35-33.55 249.78-33.55L249.78-33.55 252.03-33.55 252.03-24.83 259.28-24.83 259.28-21.6 252.03-21.6 252.03-6.4Q252.03-4.8 252.8-4.03 253.58-3.25 254.8-3.25L254.8-3.25Q255.5-3.25 256.02-3.44 256.53-3.63 256.9-3.85 257.28-4.08 257.54-4.26 257.8-4.45 258-4.45L258-4.45Q258.35-4.45 258.63-4.03L258.63-4.03 259.93-1.9Q258.78-0.83 257.15-0.21 255.53 0.4 253.8 0.4ZM280.27-22.78L279.27-21.15Q278.98-20.6 278.35-20.6L278.35-20.6Q277.98-20.6 277.5-20.88 277.02-21.15 276.34-21.49 275.65-21.83 274.7-22.11 273.75-22.4 272.45-22.4L272.45-22.4Q271.32-22.4 270.43-22.11 269.52-21.83 268.89-21.33 268.25-20.83 267.91-20.16 267.57-19.5 267.57-18.73L267.57-18.73Q267.57-17.75 268.14-17.1 268.7-16.45 269.63-15.98 270.55-15.5 271.73-15.14 272.9-14.78 274.14-14.36 275.38-13.95 276.55-13.45 277.73-12.95 278.65-12.2 279.57-11.45 280.14-10.36 280.7-9.28 280.7-7.75L280.7-7.75Q280.7-6 280.07-4.51 279.45-3.03 278.23-1.94 277-0.85 275.23-0.23 273.45 0.4 271.13 0.4L271.13 0.4Q268.48 0.4 266.32-0.46 264.18-1.33 262.68-2.68L262.68-2.68 263.73-4.38Q263.93-4.7 264.2-4.88 264.48-5.05 264.93-5.05L264.93-5.05Q265.38-5.05 265.88-4.7 266.38-4.35 267.09-3.93 267.8-3.5 268.81-3.15 269.82-2.8 271.35-2.8L271.35-2.8Q272.65-2.8 273.63-3.14 274.6-3.48 275.25-4.05 275.9-4.63 276.21-5.38 276.52-6.13 276.52-6.98L276.52-6.98Q276.52-8.03 275.96-8.71 275.4-9.4 274.48-9.89 273.55-10.38 272.36-10.74 271.18-11.1 269.94-11.5 268.7-11.9 267.51-12.41 266.32-12.93 265.4-13.7 264.48-14.48 263.91-15.61 263.35-16.75 263.35-18.38L263.35-18.38Q263.35-19.83 263.95-21.16 264.55-22.5 265.7-23.51 266.85-24.53 268.52-25.13 270.2-25.73 272.35-25.73L272.35-25.73Q274.85-25.73 276.84-24.94 278.82-24.15 280.27-22.78L280.27-22.78ZM307.89-13.4L302.14-13.4 302.14 0 297.32 0 297.32-35.83 307.89-35.83Q311.29-35.83 313.81-35.04 316.32-34.25 317.97-32.8 319.62-31.35 320.43-29.3 321.24-27.25 321.24-24.73L321.24-24.73Q321.24-22.23 320.37-20.15 319.49-18.07 317.81-16.57 316.12-15.08 313.62-14.24 311.12-13.4 307.89-13.4L307.89-13.4ZM302.14-32L302.14-17.25 307.89-17.25Q309.97-17.25 311.56-17.8 313.14-18.35 314.22-19.34 315.29-20.33 315.84-21.7 316.39-23.08 316.39-24.73L316.39-24.73Q316.39-28.15 314.28-30.08 312.17-32 307.89-32L307.89-32 302.14-32ZM331.12 0L326.67 0 326.67-25.33 329.22-25.33Q329.94-25.33 330.22-25.05 330.49-24.78 330.59-24.1L330.59-24.1 330.89-20.15Q332.19-22.8 334.1-24.29 336.02-25.78 338.59-25.78L338.59-25.78Q339.64-25.78 340.49-25.54 341.34-25.3 342.07-24.88L342.07-24.88 341.49-21.55Q341.32-20.93 340.72-20.93L340.72-20.93Q340.37-20.93 339.64-21.16 338.92-21.4 337.62-21.4L337.62-21.4Q335.29-21.4 333.73-20.05 332.17-18.7 331.12-16.13L331.12-16.13 331.12 0ZM356.84-25.73L356.84-25.73Q359.11-25.73 361.04-24.96 362.96-24.2 364.36-22.76 365.76-21.33 366.55-19.21 367.34-17.1 367.34-14.4L367.34-14.4Q367.34-13.35 367.11-13 366.89-12.65 366.26-12.65L366.26-12.65 349.41-12.65Q349.46-10.25 350.06-8.47 350.66-6.7 351.71-5.51 352.76-4.33 354.21-3.74 355.66-3.15 357.46-3.15L357.46-3.15Q359.14-3.15 360.35-3.54 361.56-3.93 362.44-4.38 363.31-4.83 363.9-5.21 364.49-5.6 364.91-5.6L364.91-5.6Q365.46-5.6 365.76-5.18L365.76-5.18 367.01-3.55Q366.19-2.55 365.04-1.81 363.89-1.07 362.58-0.6 361.26-0.13 359.86 0.11 358.46 0.35 357.09 0.35L357.09 0.35Q354.46 0.35 352.25-0.54 350.04-1.43 348.43-3.14 346.81-4.85 345.91-7.38 345.01-9.9 345.01-13.18L345.01-13.18Q345.01-15.83 345.83-18.13 346.64-20.43 348.16-22.11 349.69-23.8 351.89-24.76 354.09-25.73 356.84-25.73ZM356.94-22.45L356.94-22.45Q353.71-22.45 351.86-20.59 350.01-18.73 349.56-15.43L349.56-15.43 363.34-15.43Q363.34-16.98 362.91-18.26 362.49-19.55 361.66-20.49 360.84-21.43 359.65-21.94 358.46-22.45 356.94-22.45ZM391.46-22.43L390.29-20.83Q390.09-20.55 389.89-20.4 389.69-20.25 389.31-20.25L389.31-20.25Q388.94-20.25 388.5-20.56 388.06-20.88 387.39-21.25 386.71-21.63 385.75-21.94 384.79-22.25 383.39-22.25L383.39-22.25Q381.54-22.25 380.11-21.59 378.69-20.93 377.72-19.68 376.76-18.43 376.27-16.65 375.79-14.88 375.79-12.68L375.79-12.68Q375.79-10.38 376.31-8.59 376.84-6.8 377.79-5.59 378.74-4.38 380.1-3.74 381.46-3.1 383.16-3.1L383.16-3.1Q384.79-3.1 385.84-3.49 386.89-3.88 387.59-4.35 388.29-4.83 388.74-5.21 389.19-5.6 389.64-5.6L389.64-5.6Q390.21-5.6 390.49-5.18L390.49-5.18 391.74-3.55Q390.09-1.53 387.61-0.59 385.14 0.35 382.39 0.35L382.39 0.35Q380.01 0.35 377.97-0.53 375.94-1.4 374.44-3.06 372.94-4.73 372.07-7.15 371.21-9.58 371.21-12.68L371.21-12.68Q371.21-15.5 372-17.9 372.79-20.3 374.3-22.04 375.81-23.78 378.04-24.75 380.26-25.73 383.14-25.73L383.14-25.73Q385.79-25.73 387.84-24.86 389.89-24 391.46-22.43L391.46-22.43ZM396.86-25.33L401.31-25.33 401.31 0 396.86 0 396.86-25.33ZM402.31-33.27L402.31-33.27Q402.31-32.63 402.05-32.06 401.78-31.5 401.35-31.06 400.91-30.63 400.33-30.38 399.76-30.13 399.11-30.13L399.11-30.13Q398.46-30.13 397.9-30.38 397.33-30.63 396.9-31.06 396.46-31.5 396.21-32.06 395.96-32.63 395.96-33.27L395.96-33.27Q395.96-33.93 396.21-34.51 396.46-35.1 396.9-35.54 397.33-35.98 397.9-36.23 398.46-36.48 399.11-36.48L399.11-36.48Q399.76-36.48 400.33-36.23 400.91-35.98 401.35-35.54 401.78-35.1 402.05-34.51 402.31-33.93 402.31-33.27ZM424.66-22.78L423.66-21.15Q423.36-20.6 422.73-20.6L422.73-20.6Q422.36-20.6 421.88-20.88 421.41-21.15 420.72-21.49 420.03-21.83 419.08-22.11 418.13-22.4 416.83-22.4L416.83-22.4Q415.71-22.4 414.81-22.11 413.91-21.83 413.27-21.33 412.63-20.83 412.3-20.16 411.96-19.5 411.96-18.73L411.96-18.73Q411.96-17.75 412.52-17.1 413.08-16.45 414.01-15.98 414.93-15.5 416.11-15.14 417.28-14.78 418.52-14.36 419.76-13.95 420.93-13.45 422.11-12.95 423.03-12.2 423.96-11.45 424.52-10.36 425.08-9.28 425.08-7.75L425.08-7.75Q425.08-6 424.46-4.51 423.83-3.03 422.61-1.94 421.38-0.85 419.61-0.23 417.83 0.4 415.51 0.4L415.51 0.4Q412.86 0.4 410.71-0.46 408.56-1.33 407.06-2.68L407.06-2.68 408.11-4.38Q408.31-4.7 408.58-4.88 408.86-5.05 409.31-5.05L409.31-5.05Q409.76-5.05 410.26-4.7 410.76-4.35 411.47-3.93 412.18-3.5 413.19-3.15 414.21-2.8 415.73-2.8L415.73-2.8Q417.03-2.8 418.01-3.14 418.98-3.48 419.63-4.05 420.28-4.63 420.59-5.38 420.91-6.13 420.91-6.98L420.91-6.98Q420.91-8.03 420.34-8.71 419.78-9.4 418.86-9.89 417.93-10.38 416.75-10.74 415.56-11.1 414.32-11.5 413.08-11.9 411.89-12.41 410.71-12.93 409.78-13.7 408.86-14.48 408.3-15.61 407.73-16.75 407.73-18.38L407.73-18.38Q407.73-19.83 408.33-21.16 408.93-22.5 410.08-23.51 411.23-24.53 412.91-25.13 414.58-25.73 416.73-25.73L416.73-25.73Q419.23-25.73 421.22-24.94 423.21-24.15 424.66-22.78L424.66-22.78ZM431.35-25.33L435.81-25.33 435.81 0 431.35 0 431.35-25.33ZM436.81-33.27L436.81-33.27Q436.81-32.63 436.54-32.06 436.28-31.5 435.84-31.06 435.4-30.63 434.83-30.38 434.25-30.13 433.6-30.13L433.6-30.13Q432.95-30.13 432.39-30.38 431.83-30.63 431.39-31.06 430.95-31.5 430.7-32.06 430.45-32.63 430.45-33.27L430.45-33.27Q430.45-33.93 430.7-34.51 430.95-35.1 431.39-35.54 431.83-35.98 432.39-36.23 432.95-36.48 433.6-36.48L433.6-36.48Q434.25-36.48 434.83-36.23 435.4-35.98 435.84-35.54 436.28-35.1 436.54-34.51 436.81-33.93 436.81-33.27ZM453.9-25.73L453.9-25.73Q456.68-25.73 458.92-24.8 461.15-23.88 462.71-22.18 464.28-20.48 465.12-18.06 465.95-15.65 465.95-12.68L465.95-12.68Q465.95-9.68 465.12-7.28 464.28-4.88 462.71-3.18 461.15-1.48 458.92-0.56 456.68 0.35 453.9 0.35L453.9 0.35Q451.13 0.35 448.89-0.56 446.65-1.48 445.08-3.18 443.5-4.88 442.65-7.28 441.8-9.68 441.8-12.68L441.8-12.68Q441.8-15.65 442.65-18.06 443.5-20.48 445.08-22.18 446.65-23.88 448.89-24.8 451.13-25.73 453.9-25.73ZM453.9-3.13L453.9-3.13Q457.65-3.13 459.5-5.64 461.35-8.15 461.35-12.65L461.35-12.65Q461.35-17.18 459.5-19.7 457.65-22.23 453.9-22.23L453.9-22.23Q452-22.23 450.6-21.58 449.2-20.93 448.26-19.7 447.33-18.48 446.87-16.69 446.4-14.9 446.4-12.65L446.4-12.65Q446.4-10.4 446.87-8.63 447.33-6.85 448.26-5.64 449.2-4.42 450.6-3.78 452-3.13 453.9-3.13ZM475.9 0L471.45 0 471.45-25.33 474.1-25.33Q475.05-25.33 475.3-24.4L475.3-24.4 475.65-21.65Q477.3-23.48 479.34-24.6 481.38-25.73 484.05-25.73L484.05-25.73Q486.13-25.73 487.71-25.04 489.3-24.35 490.36-23.09 491.43-21.83 491.98-20.05 492.53-18.28 492.53-16.13L492.53-16.13 492.53 0 488.07 0 488.07-16.13Q488.07-19 486.76-20.59 485.45-22.18 482.75-22.18L482.75-22.18Q480.78-22.18 479.06-21.23 477.35-20.28 475.9-18.65L475.9-18.65 475.9 0Z" opacity="1" transform="matrix(1,0,0,1,0,0)" fill="#243cfc" class="slogan-text-1" data-fill-palette-color="secondary" id="text-1"></path></svg></g></svg></g></svg></g></svg></g><g transform="matrix(1,0,0,1,106.29583294255796,0)"><svg viewBox="0 0 182.92833411488405 177.56606510796664" height="177.56606510796664" width="182.92833411488405"><g><svg xmlns="http://www.w3.org/2000/svg" xmlns:xlink="http://www.w3.org/1999/xlink" xmlns:xodm="http://www.corel.com/coreldraw/odm/2003" xml:space="preserve" version="1.1" style="shape-rendering:geometricPrecision;text-rendering:geometricPrecision;image-rendering:optimizeQuality;" viewBox="455.69 1363.89 59045.84 57315" x="0" y="0" fill-rule="evenodd" clip-rule="evenodd" height="177.56606510796664" width="182.92833411488405" class="icon-icon-0" data-fill-palette-color="accent" id="icon-0"><g fill="#ff9513" data-fill-palette-color="accent"><path class="" d="M9428.19 1363.89C11992.07 1363.89 14266.51 4635.4 15871.11 9924.69 17434.01 15076.46 18400.69 22182.42 18400.69 30021.39S17434.01 44966.32 15871.11 50118.09C14266.51 55407.38 11992.07 58678.89 9428.19 58678.89S4589.87 55407.38 2985.27 50118.09C1422.37 44966.32 455.69 37860.36 455.69 30021.39S1422.37 15076.46 2985.27 9924.69C4589.87 4635.4 6864.31 1363.89 9428.19 1363.89M15108.61 10155.95C13610.61 5218.06 11598.76 2163.89 9428.19 2163.89S5245.77 5218.06 3747.77 10155.95C2208.04 15231.35 1255.69 22254.18 1255.69 30021.39S2208.04 44811.43 3747.77 49886.83C5245.77 54824.72 7257.62 57878.89 9428.19 57878.89S13610.61 54824.72 15108.61 49886.83C16648.34 44811.43 17600.69 37788.6 17600.69 30021.39S16648.34 15231.35 15108.61 10155.95M29920.9 1363.89C31847.25 1363.89 33530.87 4647.35 34695.64 9955.94 35823.41 15095.92 36520.97 22190.52 36520.97 30021.39S35823.41 44946.86 34695.64 50086.84C33530.87 55395.43 31847.25 58678.89 29920.9 58678.89S26310.93 55395.43 25146.16 50086.84C24018.39 44946.86 23320.83 37852.26 23320.83 30021.39S24018.39 15095.92 25146.16 9955.94C26310.93 4647.35 27994.55 1363.89 29920.9 1363.89M33914.38 10124.7C32835.18 5206.12 31418.74 2163.89 29920.9 2163.89S27006.62 5206.12 25927.42 10124.7C24811.22 15211.92 24120.83 22246.09 24120.83 30021.39S24811.22 44830.86 25927.42 49918.08C27006.62 54836.66 28423.06 57878.89 29920.9 57878.89S32835.18 54836.66 33914.38 49918.08C35030.58 44830.86 35720.97 37796.69 35720.97 30021.39S35030.58 15211.92 33914.38 10124.7M46113.61 1363.89C47402.79 1363.89 48493.77 4659.28 49215.47 9987.18 49911.03 15122.17 50341.25 22205.96 50341.25 30021.39S49911.03 44920.61 49215.47 50055.6C48493.77 55383.5 47402.79 58678.89 46113.61 58678.89S43733.45 55383.5 43011.75 50055.6C42316.19 44920.61 41885.97 37836.82 41885.97 30021.39S42316.19 15122.17 43011.75 9987.18C43733.45 4659.28 44824.43 1363.89 46113.61 1363.89M48424.85 10093.44C47761.22 5194.18 46938.36 2163.89 46113.61 2163.89 45288.87 2163.89 44466 5194.18 43802.37 10093.44 43112.6 15185.65 42685.97 22230.63 42685.97 30021.39S43112.6 44857.13 43802.37 49949.34C44466 54848.6 45288.87 57878.89 46113.61 57878.89 46938.36 57878.89 47761.22 54848.6 48424.85 49949.34 49114.62 44857.13 49541.25 37812.15 49541.25 30021.39S49114.62 15185.65 48424.85 10093.44M57646.32 1363.89C58300.75 1363.89 58798.33 4671.83 59073.75 10020.01 59338.05 15152.31 59501.53 22224.96 59501.53 30021.39S59338.05 44890.47 59073.75 50022.77C58798.33 55370.95 58300.75 58678.89 57646.32 58678.89S56494.31 55370.95 56218.89 50022.77C55954.59 44890.47 55791.11 37817.82 55791.11 30021.39S55954.59 15152.31 56218.89 10020.01C56494.31 4671.83 56991.89 1363.89 57646.32 1363.89M58276.87 10060.63C58025.62 5181.63 57795.57 2163.89 57646.32 2163.89S57267.02 5181.63 57015.77 10060.63C56753.4 15155.5 56591.11 22211.65 56591.11 30021.39S56753.4 44887.28 57015.77 49982.15C57267.02 54861.15 57497.07 57878.89 57646.32 57878.89S58025.62 54861.15 58276.87 49982.15C58539.24 44887.28 58701.53 37831.13 58701.53 30021.39S58539.24 15155.5 58276.87 10060.63" fill="#ff9513" fill-rule="nonzero" data-fill-palette-color="accent"></path></g></svg></g></svg></g><g></g></svg></g><defs></defs></svg><rect width="297.7643216714058" height="247.2" fill="none" stroke="none" visibility="hidden"></rect></g></svg></g></svg>